<svg aria-hidden="true" style="position: absolute; width: 0; height: 0; overflow: hidden;" version="1.1" xmlns="http://www.w3.org/2000/svg" xmlns:xlink="http://www.w3.org/1999/xlink">
<defs>
<svg id="icon-e-mail" viewBox="0 0 45 32">
<path d="M41.083 0h-36.833c-2.344 0-4.25 1.794-4.25 4v24c0 2.206 1.906 4 4.25 4h36.833c2.344 0 4.25-1.794 4.25-4v-24c0-2.206-1.906-4-4.25-4v0zM41.083 2.667c0.193 0 0.376 0.038 0.543 0.103l-18.96 15.466-18.96-15.466c0.167-0.066 0.351-0.103 0.543-0.103h36.833zM41.083 29.333h-36.833c-0.782 0-1.417-0.598-1.417-1.333v-22.413l18.905 15.421c0.267 0.217 0.598 0.326 0.928 0.326s0.661-0.108 0.928-0.326l18.905-15.421v22.413c0 0.736-0.635 1.333-1.417 1.333v0z"></path>
</svg>
<symbol id="icon-mobile" viewBox="0 0 20 32">
<path d="M17 0h-14c-1.654 0-3 1.346-3 3v26c0 1.654 1.346 3 3 3h14c1.654 0 3-1.346 3-3v-26c0-1.654-1.346-3-3-3zM3 2h14c0.552 0 1 0.448 1 1v21h-16v-21c0-0.552 0.448-1 1-1zM17 30h-14c-0.552 0-1-0.448-1-1v-3h16v3c0 0.552-0.448 1-1 1z"></path>
<path  d="M4.707 27.478c0.391 0.365 0.391 0.956 0 1.321s-1.024 0.365-1.414 0c-0.391-0.365-0.391-0.956 0-1.321s1.024-0.365 1.414 0z"></path>
</symbol>
<symbol id="icon-logo" viewBox="0 0 230 32">
<path d="M13.187 0.947h5.325l3.37 9.776 3.411-9.776h5.283l-5.075 13.437 3.744 9.402 8.362-22.922h6.24l-11.814 29.536h-4.95l-5.2-12.397-5.158 12.397h-4.95l-11.773-29.536h6.157l8.403 22.922 3.661-9.402-5.034-13.437zM54.763 30.816c-2.357 0-4.396-0.513-6.115-1.539-1.692-1.026-3.009-2.385-3.952-4.077-0.943-1.72-1.414-3.578-1.414-5.574 0-2.052 0.458-3.938 1.373-5.658 0.943-1.747 2.274-3.134 3.994-4.16 1.719-1.054 3.772-1.581 6.157-1.581s4.423 0.527 6.115 1.581c1.692 1.026 2.981 2.399 3.869 4.118 0.915 1.692 1.373 3.522 1.373 5.491 0 0.721-0.042 1.345-0.125 1.872h-16.848c0.139 1.692 0.763 3.023 1.872 3.994 1.137 0.971 2.44 1.456 3.91 1.456 1.109 0 2.149-0.264 3.12-0.79 0.998-0.555 1.678-1.276 2.038-2.163l4.784 1.331c-0.804 1.664-2.094 3.037-3.869 4.118-1.775 1.054-3.869 1.581-6.282 1.581zM49.064 17.754h11.398c-0.166-1.636-0.79-2.954-1.872-3.952-1.054-1.026-2.344-1.539-3.869-1.539-1.498 0-2.787 0.513-3.869 1.539-1.054 0.998-1.65 2.316-1.789 3.952zM83.202 30.816c-1.664 0-3.148-0.374-4.451-1.123s-2.33-1.775-3.078-3.078v3.786h-4.867v-30.368h5.574v12.397c0.777-1.303 1.789-2.33 3.037-3.078 1.276-0.749 2.76-1.123 4.451-1.123 1.886 0 3.536 0.527 4.95 1.581 1.442 1.026 2.565 2.399 3.37 4.118s1.206 3.605 1.206 5.658c0 2.108-0.444 4.008-1.331 5.699s-2.108 3.037-3.661 4.035c-1.525 0.998-3.259 1.498-5.2 1.498zM81.663 26.074c1.193 0 2.233-0.291 3.12-0.874 0.915-0.582 1.622-1.359 2.122-2.33 0.527-0.998 0.79-2.080 0.79-3.245 0-1.192-0.25-2.288-0.749-3.286-0.471-1.026-1.137-1.844-1.997-2.454s-1.844-0.915-2.954-0.915c-1.22 0-2.343 0.416-3.37 1.248-0.998 0.804-1.747 1.803-2.246 2.995v5.2c0.361 1.082 1.068 1.969 2.122 2.662 1.054 0.666 2.108 0.998 3.162 0.998z"></path>
<path d="M116.557 8.602c-0.25-0.277-0.776-0.638-1.581-1.082-0.804-0.471-1.775-0.887-2.912-1.248-1.109-0.388-2.26-0.582-3.453-0.582-3.134 0-4.701 1.109-4.701 3.328 0 0.804 0.25 1.442 0.749 1.914s1.248 0.874 2.246 1.206c0.998 0.333 2.246 0.693 3.744 1.082 1.941 0.499 3.619 1.082 5.034 1.747 1.442 0.666 2.538 1.553 3.286 2.662 0.777 1.082 1.165 2.524 1.165 4.326 0 2.108-0.513 3.813-1.539 5.117-0.998 1.276-2.33 2.205-3.994 2.787s-3.467 0.874-5.408 0.874c-2.219 0-4.423-0.333-6.614-0.998-2.163-0.693-4.091-1.636-5.782-2.829l2.538-4.95c0.25 0.25 0.693 0.582 1.331 0.998 0.638 0.388 1.414 0.79 2.33 1.206 0.915 0.388 1.914 0.721 2.995 0.998s2.177 0.416 3.286 0.416c3.162 0 4.742-1.012 4.742-3.037 0-0.86-0.319-1.553-0.957-2.080s-1.539-0.971-2.704-1.331c-1.137-0.36-2.468-0.763-3.994-1.206-1.886-0.527-3.453-1.109-4.701-1.747-1.22-0.666-2.135-1.484-2.746-2.454-0.61-0.998-0.915-2.26-0.915-3.786 0-2.025 0.472-3.716 1.414-5.075 0.971-1.387 2.274-2.427 3.91-3.12 1.636-0.721 3.453-1.082 5.45-1.082 2.052 0 3.966 0.333 5.741 0.998s3.3 1.428 4.576 2.288l-2.538 4.659zM137.755 29.277c-0.749 0.333-1.678 0.666-2.787 0.998-1.082 0.333-2.205 0.499-3.37 0.499-1.026 0-1.969-0.18-2.829-0.541s-1.553-0.929-2.080-1.706c-0.499-0.804-0.749-1.844-0.749-3.12v-12.522h-2.87v-4.285h2.87v-7.072h5.574v7.072h4.576v4.285h-4.576v10.65c0 0.749 0.194 1.29 0.582 1.622 0.416 0.333 0.915 0.499 1.498 0.499s1.151-0.097 1.706-0.291c0.555-0.194 0.998-0.36 1.331-0.499l1.123 4.41zM141.698 22.246v-13.645h5.574v12.438c0 3.356 1.206 5.034 3.619 5.034 1.082 0 2.122-0.319 3.12-0.957 1.026-0.666 1.858-1.664 2.496-2.995v-13.52h5.574v15.558c0 0.61 0.098 1.040 0.291 1.29 0.194 0.222 0.541 0.36 1.040 0.416v4.534c-0.555 0.111-1.026 0.18-1.414 0.208-0.36 0.028-0.693 0.042-0.998 0.042-0.998 0-1.816-0.222-2.454-0.666-0.61-0.472-0.971-1.109-1.082-1.914l-0.125-1.747c-0.971 1.498-2.219 2.621-3.744 3.37s-3.203 1.123-5.034 1.123c-2.246 0-3.952-0.721-5.117-2.163-1.165-1.47-1.747-3.605-1.747-6.406zM167.538 19.501c0-2.080 0.416-3.98 1.248-5.699s1.984-3.078 3.453-4.077c1.47-0.998 3.149-1.498 5.034-1.498 1.61 0 3.051 0.402 4.326 1.206 1.304 0.777 2.317 1.775 3.037 2.995v-12.397h5.574v24.128c0 0.61 0.098 1.040 0.291 1.29 0.195 0.222 0.528 0.36 0.998 0.416v4.534c-0.998 0.194-1.789 0.291-2.371 0.291-0.998 0-1.83-0.25-2.496-0.749-0.637-0.499-0.998-1.151-1.082-1.955l-0.083-1.373c-0.803 1.359-1.899 2.399-3.286 3.12-1.358 0.721-2.787 1.082-4.285 1.082-2.024 0-3.813-0.499-5.366-1.498-1.552-1.026-2.773-2.385-3.661-4.077-0.886-1.72-1.331-3.633-1.331-5.741zM184.635 22.413v-5.2c-0.443-1.22-1.206-2.233-2.288-3.037s-2.19-1.206-3.328-1.206c-1.136 0-2.134 0.319-2.995 0.957-0.859 0.61-1.525 1.428-1.997 2.454-0.47 0.998-0.707 2.080-0.707 3.245 0 1.192 0.264 2.288 0.79 3.286 0.528 0.971 1.235 1.747 2.122 2.33 0.915 0.555 1.955 0.832 3.12 0.832 1.054 0 2.094-0.347 3.12-1.040 1.054-0.693 1.776-1.567 2.163-2.621zM196.93 5.565v-5.533h5.574v5.533h-5.574zM196.93 30.4v-21.798h5.574v21.798h-5.574zM218.848 30.816c-2.386 0-4.437-0.513-6.157-1.539-1.691-1.054-2.995-2.44-3.91-4.16s-1.373-3.578-1.373-5.574c0-2.024 0.458-3.897 1.373-5.616 0.942-1.719 2.261-3.092 3.952-4.118 1.72-1.054 3.758-1.581 6.115-1.581s4.382 0.527 6.074 1.581c1.72 1.026 3.037 2.399 3.952 4.118s1.373 3.592 1.373 5.616c0 1.997-0.458 3.855-1.373 5.574s-2.232 3.106-3.952 4.16c-1.691 1.026-3.717 1.539-6.074 1.539zM213.149 19.542c0 1.276 0.25 2.413 0.749 3.411 0.499 0.971 1.179 1.733 2.038 2.288s1.83 0.832 2.912 0.832c1.054 0 2.011-0.277 2.87-0.832 0.859-0.582 1.539-1.359 2.038-2.33 0.526-0.998 0.79-2.136 0.79-3.411 0-1.248-0.264-2.357-0.79-3.328-0.499-0.998-1.179-1.775-2.038-2.33-0.859-0.582-1.816-0.874-2.87-0.874-1.082 0-2.053 0.291-2.912 0.874-0.859 0.555-1.539 1.331-2.038 2.33-0.499 0.971-0.749 2.094-0.749 3.37z"></path>
</symbol>
<symbol id="icon-facebook" viewBox="0 0 32 32">
<path d="M21.329 5.313h2.921v-5.088c-0.504-0.069-2.237-0.225-4.256-0.225-4.212 0-7.097 2.649-7.097 7.519v4.481h-4.648v5.688h4.648v14.312h5.699v-14.311h4.46l0.708-5.688h-5.169v-3.919c0.001-1.644 0.444-2.769 2.735-2.769z"></path>
</symbol>
<symbol id="icon-instagram" viewBox="0 0 32 32">
<path d="M31.969 9.408c-0.075-1.7-0.35-2.869-0.744-3.882-0.406-1.075-1.032-2.038-1.851-2.838-0.8-0.813-1.769-1.444-2.832-1.844-1.019-0.394-2.182-0.669-3.882-0.744-1.713-0.081-2.257-0.1-6.601-0.1s-4.888 0.019-6.595 0.094c-1.7 0.075-2.869 0.35-3.882 0.744-1.075 0.406-2.038 1.031-2.838 1.85-0.813 0.8-1.444 1.769-1.844 2.832-0.394 1.019-0.669 2.182-0.744 3.882-0.081 1.713-0.1 2.257-0.1 6.601s0.019 4.888 0.094 6.595c0.075 1.7 0.35 2.869 0.744 3.882 0.406 1.075 1.038 2.038 1.85 2.838 0.8 0.813 1.769 1.444 2.832 1.844 1.019 0.394 2.182 0.669 3.882 0.744 1.706 0.075 2.25 0.094 6.595 0.094s4.888-0.019 6.595-0.094c1.7-0.075 2.869-0.35 3.882-0.744 2.151-0.832 3.851-2.532 4.682-4.682 0.394-1.019 0.669-2.182 0.744-3.882 0.075-1.707 0.094-2.251 0.094-6.595s-0.006-4.888-0.081-6.595zM29.087 22.473c-0.069 1.563-0.331 2.407-0.55 2.969-0.538 1.394-1.644 2.5-3.038 3.038-0.563 0.219-1.413 0.481-2.969 0.55-1.688 0.075-2.194 0.094-6.464 0.094s-4.782-0.019-6.464-0.094c-1.563-0.069-2.407-0.331-2.969-0.55-0.694-0.256-1.325-0.663-1.838-1.194-0.531-0.519-0.938-1.144-1.194-1.838-0.219-0.563-0.481-1.413-0.55-2.969-0.075-1.688-0.094-2.194-0.094-6.464s0.019-4.782 0.094-6.464c0.069-1.563 0.331-2.407 0.55-2.969 0.256-0.694 0.663-1.325 1.2-1.838 0.519-0.531 1.144-0.938 1.838-1.194 0.563-0.219 1.413-0.481 2.969-0.55 1.688-0.075 2.194-0.094 6.464-0.094 4.276 0 4.782 0.019 6.464 0.094 1.563 0.069 2.407 0.331 2.969 0.55 0.694 0.256 1.325 0.662 1.838 1.194 0.531 0.519 0.938 1.144 1.194 1.838 0.219 0.563 0.481 1.413 0.55 2.969 0.075 1.688 0.094 2.194 0.094 6.464s-0.019 4.77-0.094 6.458z"></path>
<path d="M16.059 7.783c-4.538 0-8.22 3.682-8.22 8.22s3.682 8.22 8.22 8.22c4.539 0 8.22-3.682 8.22-8.22s-3.682-8.22-8.22-8.22zM16.059 21.335c-2.944 0-5.332-2.388-5.332-5.332s2.388-5.332 5.332-5.332c2.944 0 5.332 2.388 5.332 5.332s-2.388 5.332-5.332 5.332z"></path>
<path d="M26.524 7.458c0 1.060-0.859 1.919-1.919 1.919s-1.919-0.859-1.919-1.919c0-1.060 0.859-1.919 1.919-1.919s1.919 0.859 1.919 1.919z"></path>
</symbol>
<symbol id="icon-linkedin" viewBox="0 0 32 32">
<path d="M31.992 32v-0.001h0.008v-11.736c0-5.741-1.236-10.164-7.948-10.164-3.227 0-5.392 1.771-6.276 3.449h-0.093v-2.913h-6.364v21.364h6.627v-10.579c0-2.785 0.528-5.479 3.977-5.479 3.399 0 3.449 3.179 3.449 5.657v10.401h6.62z"></path>
<path d="M0.528 10.636h6.635v21.364h-6.635v-21.364z"></path>
<path d="M3.843 0c-2.121 0-3.843 1.721-3.843 3.843s1.721 3.879 3.843 3.879c2.121 0 3.843-1.757 3.843-3.879-0.001-2.121-1.723-3.843-3.843-3.843v0z"></path>
</symbol>
<symbol id="icon-twitter" viewBox="0 0 32 32">
<path d="M32 6.078c-1.19 0.522-2.458 0.868-3.78 1.036 1.36-0.812 2.398-2.088 2.886-3.626-1.268 0.756-2.668 1.29-4.16 1.588-1.204-1.282-2.92-2.076-4.792-2.076-3.632 0-6.556 2.948-6.556 6.562 0 0.52 0.044 1.020 0.152 1.496-5.454-0.266-10.28-2.88-13.522-6.862-0.566 0.982-0.898 2.106-0.898 3.316 0 2.272 1.17 4.286 2.914 5.452-1.054-0.020-2.088-0.326-2.964-0.808 0 0.020 0 0.046 0 0.072 0 3.188 2.274 5.836 5.256 6.446-0.534 0.146-1.116 0.216-1.72 0.216-0.42 0-0.844-0.024-1.242-0.112 0.85 2.598 3.262 4.508 6.13 4.57-2.232 1.746-5.066 2.798-8.134 2.798-0.538 0-1.054-0.024-1.57-0.090 2.906 1.874 6.35 2.944 10.064 2.944 12.072 0 18.672-10 18.672-18.668 0-0.29-0.010-0.57-0.024-0.848 1.302-0.924 2.396-2.078 3.288-3.406z"></path>
</symbol>
</defs>
</svg>
